<svg xmlns="http://www.w3.org/2000/svg" width="1200" height="700" viewBox="0 0 1200 700">
  <defs>
    <linearGradient id="g1" x1="0" x2="1">
      <stop offset="0" stop-color="#6C63FF" />
      <stop offset="1" stop-color="#4F46E5" />
    </linearGradient>
  </defs>
  <rect width="1200" height="700" rx="12" fill="#fff" stroke="#e6e6f0" />
  <rect x="24" y="24" width="1152" height="64" rx="8" fill="url(#g1)" />
  <text x="48" y="64" fill="#fff" font-size="22" font-family="Arial, Helvetica, sans-serif">LeadBoost — Lead Input & Scoring</text>

  <!-- Left column form -->
  <rect x="24" y="108" width="420" height="520" rx="8" fill="#fbfbff" stroke="#eef" />
  <text x="40" y="140" fill="#333" font-size="14">Add lead</text>
  <rect x="40" y="156" width="380" height="40" rx="6" fill="#fff" stroke="#e6e6f0" />
  <rect x="40" y="208" width="380" height="40" rx="6" fill="#fff" stroke="#e6e6f0" />
  <rect x="40" y="260" width="380" height="40" rx="6" fill="#fff" stroke="#e6e6f0" />
  <rect x="40" y="312" width="380" height="40" rx="6" fill="#fff" stroke="#e6e6f0" />
  <rect x="40" y="364" width="380" height="40" rx="6" fill="#fff" stroke="#e6e6f0" />
  <rect x="40" y="416" width="380" height="40" rx="6" fill="#fff" stroke="#e6e6f0" />
  <rect x="40" y="474" width="380" height="44" rx="8" fill="#6C63FF" />
  <text x="210" y="504" fill="#fff" font-size="14" font-family="Arial" text-anchor="middle">Finish & Score</text>

  <!-- Right column results -->
  <rect x="468" y="108" width="708" height="520" rx="8" fill="#fff" stroke="#eef" />
  <text x="484" y="140" fill="#333" font-size="14">Scoring results</text>
  <rect x="484" y="164" width="640" height="120" rx="8" fill="#fbfbff" stroke="#e9e9fc" />
  <rect x="484" y="300" width="640" height="120" rx="8" fill="#fbfbff" stroke="#e9e9fc" />
  <rect x="484" y="436" width="640" height="120" rx="8" fill="#fbfbff" stroke="#e9e9fc" />

  <circle cx="540" cy="224" r="30" fill="#4F46E5" />
  <text x="540" y="232" fill="#fff" font-size="12" font-family="Arial" text-anchor="middle">85</text>
  <text x="588" y="232" fill="#666" font-size="12">AI Score</text>

  <circle cx="540" cy="360" r="30" fill="#6C63FF" />
  <text x="540" y="368" fill="#fff" font-size="12" font-family="Arial" text-anchor="middle">15</text>
  <text x="588" y="368" fill="#666" font-size="12">Base Score</text>

  <rect x="484" y="512" width="640" height="40" rx="6" fill="#fff" stroke="#e6e6f0" />
  <text x="500" y="538" fill="#666" font-size="12">Deterministic breakdown: Role 0 • Company 5 • Intent 0 • Contact 10 • Recency 0</text>
</svg>